<svg width="512" height="512" viewBox="0 0 512 512" xmlns="http://www.w3.org/2000/svg">
  <!-- Fondo verde Spotify -->
  <rect width="512" height="512" fill="#1DB954"/>
  
  <!-- Círculo blanco central -->
  <circle cx="256" cy="256" r="200" fill="#ffffff"/>
  
  <!-- Notas musicales -->
  <!-- Nota 1 (izquierda) -->
  <g transform="translate(160, 200)">
    <!-- Cabeza de nota -->
    <circle cx="0" cy="40" r="12" fill="#1DB954"/>
    <!-- Tallo -->
    <rect x="8" y="0" width="6" height="40" fill="#1DB954"/>
    <!-- Bandera -->
    <path d="M 14 0 Q 40 5 40 15 Q 40 25 14 30 Z" fill="#1DB954"/>
  </g>
  
  <!-- Nota 2 (derecha) -->
  <g transform="translate(280, 160)">
    <!-- Cabeza de nota -->
    <circle cx="0" cy="50" r="12" fill="#1DB954"/>
    <!-- Tallo -->
    <rect x="8" y="0" width="6" height="50" fill="#1DB954"/>
    <!-- Bandera -->
    <path d="M 14 0 Q 40 5 40 15 Q 40 25 14 30 Z" fill="#1DB954"/>
  </g>
  
  <!-- Lista de canciones (derecha) -->
  <g transform="translate(320, 280)">
    <!-- Línea 1 -->
    <line x1="0" y1="0" x2="80" y2="0" stroke="#1DB954" stroke-width="8" stroke-linecap="round"/>
    <!-- Línea 2 -->
    <line x1="0" y1="25" x2="70" y2="25" stroke="#1DB954" stroke-width="8" stroke-linecap="round"/>
    <!-- Línea 3 -->
    <line x1="0" y1="50" x2="60" y2="50" stroke="#1DB954" stroke-width="8" stroke-linecap="round"/>
  </g>
  
  <!-- Checkmark grande a la izquierda -->
  <g transform="translate(180, 320)">
    <polyline points="0,25 18,40 50,8" stroke="#1DB954" stroke-width="16" fill="none" stroke-linecap="round" stroke-linejoin="round"/>
  </g>
</svg>